<svg preserveAspectRatio="none" overflow="visible" style="display: block;" width="18" height="18" viewBox="0 0 18 18" fill="none" xmlns="http://www.w3.org/2000/svg">
<g id="Icon set">
<rect width="18" height="18" rx="5" fill="#EC3013"/>
<path id="Vector" d="M7.18741 11.2119L5.20489 9.22939C5.15304 9.17691 5.0913 9.13525 5.02324 9.10682C4.95518 9.07838 4.88215 9.06374 4.80838 9.06374C4.73462 9.06374 4.66159 9.07838 4.59352 9.10682C4.52546 9.13525 4.46372 9.17691 4.41188 9.22939C4.3594 9.28123 4.31774 9.34297 4.28931 9.41104C4.26087 9.4791 4.24623 9.55213 4.24623 9.62589C4.24623 9.69966 4.26087 9.77269 4.28931 9.84075C4.31774 9.90881 4.3594 9.97056 4.41188 10.0224L6.78524 12.3958C7.00615 12.6167 7.363 12.6167 7.58391 12.3958L13.5881 6.39721C13.6406 6.34537 13.6823 6.28363 13.7107 6.21557C13.7391 6.1475 13.7538 6.07447 13.7538 6.00071C13.7538 5.92695 13.7391 5.85392 13.7107 5.78585C13.6823 5.71779 13.6406 5.65605 13.5881 5.60421C13.5363 5.55173 13.4745 5.51007 13.4065 5.48163C13.3384 5.4532 13.2654 5.43856 13.1916 5.43856C13.1179 5.43856 13.0448 5.4532 12.9768 5.48163C12.9087 5.51007 12.847 5.55173 12.7951 5.60421L7.18741 11.2119Z" fill="white"/>
</g>
</svg>
